<svg width="41" height="37" viewBox="0 0 41 37" fill="none" xmlns="http://www.w3.org/2000/svg">
<path d="M17.575 24.975C17.575 25.6595 17.39 26.27 17.057 26.825C16.428 25.7335 15.244 24.975 13.875 24.975C12.506 24.975 11.322 25.7335 10.693 26.825C10.3785 26.27 10.175 25.6595 10.175 24.975C10.175 22.94 11.84 21.275 13.875 21.275C15.91 21.275 17.575 22.94 17.575 24.975ZM40.7 24.05V29.6C40.7 30.6175 39.8675 31.45 38.85 31.45H37V33.3C37 35.3535 35.3535 37 33.3 37H7.4C6.4187 37 5.47759 36.6102 4.7837 35.9163C4.08982 35.2224 3.7 34.2813 3.7 33.3V31.45H1.85C0.8325 31.45 0 30.6175 0 29.6V24.05C0 23.0325 0.8325 22.2 1.85 22.2H3.7C3.7 15.0405 9.4905 9.25 16.65 9.25H18.5V6.9005C17.39 6.2715 16.65 5.069 16.65 3.7C16.65 1.665 18.315 0 20.35 0C22.385 0 24.05 1.665 24.05 3.7C24.05 5.069 23.31 6.2715 22.2 6.9005V9.25H24.05C31.2095 9.25 37 15.0405 37 22.2H38.85C39.8675 22.2 40.7 23.0325 40.7 24.05ZM37 25.9H33.3V22.2C33.3 17.094 29.156 12.95 24.05 12.95H16.65C11.544 12.95 7.4 17.094 7.4 22.2V25.9H3.7V27.75H7.4V33.3H33.3V27.75H37V25.9ZM26.825 21.275C24.79 21.275 23.125 22.94 23.125 24.975C23.125 25.6595 23.3285 26.27 23.643 26.825C24.272 25.7335 25.456 24.975 26.825 24.975C28.194 24.975 29.378 25.7335 30.007 26.825C30.34 26.27 30.525 25.6595 30.525 24.975C30.525 23.9937 30.1352 23.0526 29.4413 22.3587C28.7474 21.6648 27.8063 21.275 26.825 21.275Z" fill="#7269EF"/>
</svg>
