<svg width="241" height="418" viewBox="0 0 241 418" fill="none" xmlns="http://www.w3.org/2000/svg">
<path d="M102.461 287.45H122.514V250.966H102.461V287.45Z" fill="#043340"/>
<path d="M86.9572 372.091C83.4455 371.68 80.936 368.499 81.3463 364.988L90.5414 286.703C90.9546 283.193 94.1241 280.677 97.6473 281.093C101.158 281.505 103.672 284.686 103.257 288.198L94.0631 366.478C93.6485 370.005 90.4524 372.504 86.9572 372.091Z" fill="#043340"/>
<path d="M140.723 369.94L128.819 288.375C128.31 284.877 130.732 281.626 134.227 281.115C137.722 280.605 140.976 283.027 141.487 286.526L153.395 368.089C153.904 371.588 151.482 374.839 147.983 375.349C144.465 375.857 141.234 373.421 140.723 369.94Z" fill="#043340"/>
<path d="M97.6266 336.798L98.7121 408.057L59.4999 406.551L76.7357 336.687C77.6353 333.023 79.5328 329.604 81.9132 328.412C84.4851 327.12 88.207 327.366 90.9088 328.144C93.9334 329.018 97.6266 333.541 97.6266 336.798Z" fill="#A2BFDC"/>
<path d="M97.6266 336.798C97.6266 336.786 97.6266 336.775 97.6266 336.764C97.6266 336.775 97.6266 336.786 97.6266 336.798ZM97.6266 336.748C97.6266 336.74 97.6266 336.733 97.6266 336.725C97.6266 336.733 97.6266 336.74 97.6266 336.748ZM97.6266 336.71C97.6266 336.702 97.6266 336.695 97.6266 336.687C97.6266 336.695 97.6266 336.702 97.6266 336.71ZM97.6266 336.675C97.6266 336.664 97.6266 336.656 97.6266 336.649C97.6266 336.656 97.6266 336.664 97.6266 336.675ZM97.6237 336.637C97.6237 336.629 97.6237 336.618 97.6237 336.61C97.6237 336.618 97.6237 336.626 97.6237 336.637ZM97.6237 336.598C97.6237 336.591 97.6237 336.58 97.6237 336.572C97.6237 336.58 97.6237 336.591 97.6237 336.598ZM97.6237 336.56C97.6201 336.552 97.6201 336.542 97.6201 336.534C97.6201 336.542 97.6201 336.552 97.6237 336.56ZM97.6201 336.522C97.6201 336.514 97.6201 336.503 97.6201 336.495C97.6201 336.503 97.6201 336.514 97.6201 336.522ZM97.6158 336.487C97.6158 336.476 97.6158 336.465 97.6158 336.453C97.6158 336.465 97.6158 336.476 97.6158 336.487ZM97.6158 336.449C97.6122 336.438 97.6122 336.427 97.6122 336.411C97.6122 336.427 97.6122 336.438 97.6158 336.449ZM97.6122 336.411C97.6086 336.384 97.6086 336.357 97.6043 336.327C97.6086 336.357 97.6086 336.384 97.6122 336.411Z" fill="#D5DEE2"/>
<path d="M97.6042 336.327C97.5626 335.898 97.4586 335.449 97.3101 334.994C97.4586 335.449 97.5626 335.898 97.6042 336.327Z" fill="#D5DEE2"/>
<path d="M97.6042 336.327C97.5626 335.898 97.4586 335.449 97.3101 334.994C97.4586 335.449 97.5626 335.898 97.6042 336.327Z" fill="#043340"/>
<path d="M98.7121 408.057L59.4999 406.551C85.0906 403.239 93.9858 361.738 97.0757 334.364C97.1639 334.571 97.2407 334.782 97.3103 334.994C97.4588 335.449 97.5628 335.897 97.6044 336.327C97.6087 336.357 97.6087 336.384 97.6123 336.411C97.6123 336.427 97.6123 336.438 97.6159 336.449V336.453C97.6159 336.465 97.6159 336.476 97.6159 336.487C97.6159 336.487 97.6159 336.492 97.6202 336.495C97.6202 336.503 97.6202 336.514 97.6202 336.522C97.6202 336.526 97.6202 336.53 97.6202 336.534C97.6202 336.542 97.6202 336.552 97.6238 336.56C97.6238 336.565 97.6238 336.568 97.6238 336.572C97.6238 336.58 97.6238 336.591 97.6238 336.598C97.6238 336.603 97.6238 336.606 97.6238 336.61C97.6238 336.618 97.6238 336.629 97.6238 336.637C97.6238 336.641 97.6266 336.645 97.6266 336.649C97.6266 336.656 97.6266 336.664 97.6266 336.675C97.6266 336.679 97.6266 336.683 97.6266 336.687C97.6266 336.695 97.6266 336.702 97.6266 336.71C97.6266 336.713 97.6266 336.721 97.6266 336.725C97.6266 336.733 97.6266 336.74 97.6266 336.748C97.6266 336.753 97.6266 336.756 97.6266 336.764C97.6266 336.775 97.6266 336.786 97.6266 336.798L98.7121 408.057Z" fill="#87A6C3"/>
<path d="M79.1543 407.306L81.2241 383.122L98.3594 384.93L98.3451 383.791L81.3195 381.994L85.9869 327.508C85.6089 327.519 85.2286 327.542 84.857 327.588L81.407 367.836H69.0518L68.9276 368.326C68.8781 368.537 68.8243 368.751 68.7705 368.966H81.3116L78.0309 407.263L79.1543 407.306Z" fill="#4890C0"/>
<path d="M82.6606 380.449C82.6606 380.722 82.8794 380.944 83.1513 380.944C83.4197 380.944 83.6421 380.722 83.6421 380.449C83.6421 380.177 83.4197 379.956 83.1513 379.956C82.8794 379.956 82.6606 380.177 82.6606 380.449Z" fill="#4890C0"/>
<path d="M80.0011 366.188C80.0011 366.514 80.2615 366.778 80.5829 366.778C80.9057 366.778 81.1662 366.514 81.1662 366.188C81.1662 365.862 80.9057 365.601 80.5829 365.601C80.2615 365.601 80.0011 365.862 80.0011 366.188Z" fill="#4890C0"/>
<path d="M101.515 417.659C101.515 417.659 54.0837 418.225 50.5346 416.532C46.9856 414.837 59.8559 403.871 66.5946 401.844C79.1041 398.08 97.2215 402.787 100.207 409.751C103.197 416.719 101.515 417.659 101.515 417.659Z" fill="#C1DAE7"/>
<path d="M97.0564 413.894C97.0564 413.894 98.7395 412.951 95.75 405.987C95.585 405.604 95.3748 405.229 95.1252 404.86C97.6045 406.259 99.426 407.93 100.207 409.751C103.197 416.719 101.514 417.659 101.514 417.659C101.514 417.659 54.0836 418.225 50.5345 416.532C49.561 416.063 49.8214 414.902 50.8523 413.419C63.7227 414.293 97.0564 413.894 97.0564 413.894Z" fill="#043340"/>
<path d="M134.349 334.153L133.253 405.481L172.827 403.975L155.434 334.043C154.522 330.371 152.608 326.952 150.21 325.755C147.612 324.464 143.855 324.709 141.13 325.488C138.079 326.362 134.349 330.889 134.349 334.153Z" fill="#A2BFDC"/>
<path d="M134.349 334.153C134.349 334.138 134.349 334.127 134.349 334.115C134.349 334.127 134.349 334.138 134.349 334.153ZM134.349 334.103C134.349 334.092 134.349 334.085 134.349 334.077C134.349 334.085 134.349 334.092 134.349 334.103ZM134.349 334.062C134.349 334.054 134.349 334.047 134.349 334.039C134.349 334.047 134.349 334.054 134.349 334.062ZM134.349 334.023C134.349 334.016 134.349 334.008 134.349 334.005C134.349 334.008 134.349 334.016 134.349 334.023ZM134.349 333.984C134.354 333.981 134.354 333.973 134.354 333.966C134.354 333.973 134.354 333.981 134.349 333.984ZM134.354 333.951C134.354 333.943 134.354 333.935 134.354 333.927C134.354 333.935 134.354 333.943 134.354 333.951ZM134.354 333.912C134.354 333.905 134.357 333.897 134.357 333.889C134.357 333.897 134.354 333.905 134.354 333.912ZM134.357 333.874C134.357 333.867 134.357 333.859 134.357 333.851C134.357 333.859 134.357 333.867 134.357 333.874ZM134.361 333.835C134.361 333.828 134.361 333.821 134.361 333.813C134.361 333.821 134.361 333.828 134.361 333.835ZM134.361 333.797C134.361 333.789 134.365 333.783 134.365 333.775C134.365 333.783 134.361 333.789 134.361 333.797ZM134.365 333.759C134.365 333.751 134.368 333.744 134.368 333.732C134.368 333.744 134.365 333.751 134.365 333.759ZM134.368 333.72C134.368 333.713 134.373 333.702 134.373 333.694C134.373 333.702 134.368 333.713 134.368 333.72ZM134.373 333.682C134.373 333.671 134.376 333.663 134.376 333.652C134.376 333.663 134.373 333.671 134.373 333.682ZM134.376 333.644C134.384 333.593 134.387 333.541 134.396 333.487C134.387 333.541 134.384 333.593 134.376 333.644ZM134.396 333.487C134.4 333.471 134.4 333.46 134.403 333.449C134.4 333.46 134.4 333.471 134.396 333.487ZM134.403 333.444C134.403 333.433 134.408 333.422 134.408 333.406C134.408 333.422 134.403 333.433 134.403 333.444ZM134.408 333.402C134.411 333.392 134.411 333.379 134.414 333.368C134.411 333.379 134.411 333.392 134.408 333.402ZM134.414 333.364C134.418 333.353 134.418 333.341 134.422 333.329C134.418 333.341 134.418 333.353 134.414 333.364ZM134.422 333.322C134.422 333.311 134.426 333.299 134.426 333.287C134.426 333.299 134.422 333.311 134.422 333.322ZM134.43 333.283C134.43 333.272 134.433 333.261 134.433 333.249C134.433 333.261 134.43 333.272 134.43 333.283ZM134.433 333.245C134.438 333.229 134.441 333.218 134.441 333.207C134.441 333.218 134.438 333.229 134.433 333.245ZM134.441 333.203C134.538 332.721 134.695 332.219 134.905 331.711C134.695 332.219 134.538 332.721 134.441 333.203Z" fill="#D5DEE2"/>
<path d="M133.253 405.481L134.349 334.153C134.349 334.138 134.349 334.127 134.349 334.115C134.349 334.111 134.349 334.107 134.349 334.103C134.349 334.092 134.349 334.085 134.349 334.077C134.349 334.073 134.349 334.065 134.349 334.062C134.349 334.054 134.349 334.047 134.349 334.039C134.349 334.035 134.349 334.027 134.349 334.023C134.349 334.016 134.349 334.008 134.349 334.005C134.349 333.997 134.349 333.992 134.349 333.984C134.354 333.981 134.354 333.973 134.354 333.966C134.354 333.958 134.354 333.954 134.354 333.951C134.354 333.943 134.354 333.935 134.354 333.927C134.354 333.92 134.354 333.916 134.354 333.912C134.354 333.905 134.357 333.897 134.357 333.889C134.357 333.886 134.357 333.878 134.357 333.874C134.357 333.867 134.357 333.859 134.357 333.851C134.357 333.846 134.357 333.839 134.361 333.835C134.361 333.828 134.361 333.821 134.361 333.813C134.361 333.808 134.361 333.801 134.361 333.797C134.361 333.789 134.365 333.783 134.365 333.775C134.365 333.77 134.365 333.762 134.365 333.759C134.365 333.751 134.368 333.744 134.368 333.732C134.368 333.728 134.368 333.724 134.368 333.72C134.368 333.713 134.373 333.702 134.373 333.694C134.373 333.69 134.373 333.686 134.373 333.682C134.373 333.671 134.376 333.663 134.376 333.652C134.376 333.648 134.376 333.648 134.376 333.644C134.384 333.593 134.387 333.541 134.396 333.487C134.4 333.471 134.4 333.46 134.403 333.449C134.403 333.444 134.403 333.444 134.403 333.444C134.403 333.433 134.408 333.422 134.408 333.406C134.408 333.406 134.408 333.406 134.408 333.402C134.411 333.392 134.411 333.379 134.414 333.368V333.364C134.419 333.353 134.419 333.341 134.422 333.329C134.422 333.326 134.422 333.326 134.422 333.322C134.422 333.311 134.426 333.299 134.426 333.287L134.43 333.283C134.43 333.272 134.434 333.261 134.434 333.249C134.434 333.245 134.434 333.245 134.434 333.245C134.438 333.229 134.441 333.218 134.441 333.207C134.441 333.203 134.441 333.203 134.441 333.203C134.538 332.721 134.695 332.219 134.905 331.711C138.021 359.116 147.001 400.66 172.827 403.975L133.253 405.481Z" fill="#87A6C3"/>
<path d="M150.815 366.353H163.471C163.382 366.004 163.298 365.658 163.21 365.317L163.188 365.218H150.715L147.235 324.932C146.86 324.89 146.48 324.863 146.097 324.851L150.804 379.395L133.626 381.193V381.254C133.626 381.292 133.626 381.331 133.626 381.369L133.61 382.332L150.903 380.518L152.992 404.73L153.383 404.715L154.123 404.688L150.815 366.353Z" fill="#4890C0"/>
<path d="M149.454 377.847C149.454 378.118 149.232 378.342 148.96 378.342C148.684 378.342 148.465 378.118 148.465 377.847C148.465 377.57 148.684 377.352 148.96 377.352C149.232 377.352 149.454 377.57 149.454 377.847Z" fill="#4890C0"/>
<path d="M152.137 363.57C152.137 363.896 151.876 364.16 151.55 364.16C151.225 364.16 150.96 363.896 150.96 363.57C150.96 363.244 151.225 362.984 151.55 362.984C151.876 362.984 152.137 363.244 152.137 363.57Z" fill="#4890C0"/>
<path d="M130.428 415.094C130.428 415.094 178.292 415.658 181.871 413.963C185.452 412.264 172.466 401.292 165.667 399.264C153.041 395.493 134.759 400.208 131.746 407.179C128.73 414.151 130.428 415.094 130.428 415.094Z" fill="#C1DAE7"/>
<path d="M134.924 411.322C134.924 411.322 133.226 410.383 136.243 403.407C136.408 403.024 136.623 402.649 136.875 402.281C134.372 403.684 132.536 405.351 131.746 407.179C128.73 414.151 130.428 415.094 130.428 415.094C130.428 415.094 178.292 415.658 181.871 413.963C182.852 413.499 182.588 412.335 181.55 410.852C168.564 411.721 134.924 411.322 134.924 411.322Z" fill="#043340"/>
<path d="M84.4276 277.663C69.2264 277.663 94.4039 316.52 115.339 316.52C132.732 316.52 159.746 277.926 144.549 277.926L84.4276 277.663Z" fill="#A2BFDC"/>
<path d="M115.269 316.52C115.263 316.52 115.255 316.52 115.247 316.52C115.255 316.52 115.263 316.52 115.269 316.52ZM115.201 316.52C115.189 316.52 115.182 316.52 115.174 316.52C115.182 316.52 115.193 316.52 115.201 316.52ZM115.124 316.515C115.117 316.515 115.112 316.515 115.104 316.515C115.112 316.515 115.117 316.515 115.124 316.515ZM114.963 316.515C114.956 316.515 114.948 316.515 114.941 316.515C114.948 316.515 114.956 316.515 114.963 316.515ZM114.89 316.512C114.883 316.512 114.875 316.512 114.867 316.512C114.875 316.512 114.883 316.512 114.89 316.512ZM114.818 316.512C114.81 316.512 114.802 316.512 114.794 316.512C114.802 316.512 114.81 316.512 114.818 316.512ZM114.729 316.507C114.725 316.507 114.721 316.507 114.721 316.507C114.721 316.507 114.725 316.507 114.729 316.507ZM114.657 316.504C114.649 316.504 114.641 316.504 114.633 316.504C114.641 316.504 114.649 316.504 114.657 316.504ZM114.584 316.499C114.576 316.499 114.568 316.499 114.557 316.499C114.565 316.499 114.576 316.499 114.584 316.499ZM114.511 316.499C114.503 316.496 114.495 316.496 114.488 316.496C114.495 316.496 114.503 316.496 114.511 316.499ZM114.423 316.492C114.419 316.492 114.415 316.492 114.408 316.492C114.411 316.492 114.419 316.492 114.423 316.492ZM114.346 316.488C114.338 316.488 114.33 316.488 114.324 316.488C114.33 316.488 114.338 316.488 114.346 316.488ZM114.278 316.484C114.266 316.484 114.258 316.484 114.25 316.484C114.258 316.484 114.266 316.484 114.278 316.484ZM114.204 316.482C114.197 316.482 114.185 316.482 114.177 316.482C114.185 316.482 114.197 316.482 114.204 316.482ZM114.112 316.474C114.109 316.474 114.105 316.474 114.101 316.474C114.105 316.474 114.109 316.474 114.112 316.474ZM114.039 316.469C114.032 316.469 114.02 316.469 114.012 316.469C114.024 316.469 114.028 316.469 114.039 316.469ZM113.966 316.466C113.958 316.461 113.952 316.461 113.939 316.461C113.947 316.461 113.958 316.461 113.966 316.466ZM113.895 316.458C113.887 316.458 113.879 316.458 113.871 316.458C113.879 316.458 113.887 316.458 113.895 316.458ZM113.806 316.45C113.798 316.45 113.794 316.45 113.786 316.45C113.794 316.45 113.802 316.45 113.806 316.45ZM113.729 316.442C113.722 316.442 113.714 316.442 113.702 316.442C113.714 316.442 113.722 316.442 113.729 316.442ZM113.659 316.439C113.648 316.435 113.641 316.435 113.629 316.435C113.641 316.435 113.648 316.435 113.659 316.439ZM113.583 316.431C113.575 316.431 113.567 316.427 113.561 316.427C113.567 316.427 113.575 316.431 113.583 316.431ZM113.499 316.423C113.491 316.42 113.483 316.42 113.472 316.42C113.483 316.42 113.491 316.42 113.499 316.423ZM113.419 316.412C113.411 316.412 113.403 316.412 113.391 316.412C113.403 316.412 113.411 316.412 113.419 316.412ZM113.349 316.404C113.339 316.404 113.331 316.404 113.319 316.4C113.331 316.404 113.339 316.404 113.349 316.404ZM113.276 316.397C113.269 316.397 113.257 316.397 113.25 316.393C113.257 316.397 113.269 316.397 113.276 316.397ZM113.192 316.389C113.181 316.385 113.17 316.385 113.162 316.381C113.173 316.385 113.181 316.385 113.192 316.389ZM113.113 316.377C113.1 316.377 113.092 316.373 113.081 316.373C113.092 316.373 113.1 316.377 113.113 316.377ZM113.039 316.369C113.031 316.365 113.02 316.365 113.008 316.362C113.02 316.365 113.031 316.365 113.039 316.369ZM112.966 316.357C112.958 316.357 112.948 316.355 112.94 316.355C112.948 316.355 112.958 316.357 112.966 316.357ZM112.89 316.347C112.874 316.347 112.859 316.343 112.844 316.343C112.859 316.343 112.874 316.347 112.89 316.347ZM112.801 316.335C112.79 316.335 112.779 316.331 112.771 316.331C112.779 316.331 112.79 316.335 112.801 316.335ZM112.732 316.327C112.722 316.324 112.706 316.324 112.694 316.319C112.709 316.324 112.722 316.324 112.732 316.327ZM112.66 316.317C112.648 316.312 112.637 316.312 112.625 316.308C112.637 316.312 112.648 316.312 112.66 316.317ZM112.587 316.305C112.567 316.301 112.549 316.297 112.529 316.297C112.549 316.297 112.567 316.301 112.587 316.305ZM112.491 316.289C112.48 316.289 112.468 316.285 112.456 316.285C112.468 316.285 112.48 316.289 112.491 316.289ZM112.422 316.278C112.41 316.278 112.396 316.273 112.383 316.273C112.399 316.273 112.407 316.278 112.422 316.278ZM112.349 316.267C112.338 316.267 112.326 316.262 112.315 316.262C112.326 316.262 112.338 316.267 112.349 316.267ZM112.277 316.254C112.257 316.251 112.234 316.246 112.215 316.243C112.234 316.246 112.257 316.251 112.277 316.254ZM112.181 316.24C112.168 316.235 112.158 316.235 112.142 316.232C112.158 316.235 112.168 316.235 112.181 316.24ZM112.112 316.224C112.096 316.224 112.085 316.22 112.073 316.22C112.085 316.22 112.096 316.224 112.112 316.224ZM112.039 316.213C112.027 316.213 112.016 316.208 112 316.205C112.016 316.208 112.027 316.213 112.039 316.213ZM111.973 316.2C111.951 316.197 111.924 316.194 111.9 316.186C111.924 316.194 111.946 316.197 111.973 316.2ZM111.87 316.182C111.859 316.178 111.843 316.178 111.828 316.174C111.843 316.178 111.854 316.178 111.87 316.182ZM111.801 316.17C111.785 316.167 111.775 316.162 111.759 316.159C111.775 316.162 111.785 316.167 111.801 316.17ZM111.732 316.154C111.717 316.151 111.701 316.151 111.69 316.148C111.706 316.151 111.717 316.151 111.732 316.154ZM111.671 316.143C111.64 316.136 111.61 316.132 111.579 316.124C111.61 316.132 111.64 316.136 111.671 316.143ZM111.56 316.121C111.544 316.116 111.529 316.113 111.513 316.113C111.529 316.113 111.544 316.116 111.56 316.121ZM111.491 316.105C111.475 316.101 111.46 316.101 111.445 316.097C111.46 316.101 111.475 316.105 111.491 316.105ZM111.422 316.093C111.406 316.091 111.391 316.086 111.376 316.083C111.391 316.086 111.406 316.091 111.422 316.093ZM111.368 316.083C111.333 316.075 111.299 316.067 111.265 316.059C111.299 316.067 111.333 316.075 111.368 316.083ZM111.249 316.055C111.234 316.051 111.215 316.048 111.199 316.044C111.215 316.048 111.234 316.051 111.249 316.055ZM111.18 316.04C111.164 316.037 111.15 316.032 111.13 316.029C111.15 316.032 111.164 316.037 111.18 316.04ZM111.115 316.024C111.058 316.013 111.001 315.998 110.943 315.986C111.001 315.998 111.058 316.013 111.115 316.024ZM110.939 315.982C110.919 315.979 110.904 315.974 110.886 315.971C110.904 315.974 110.919 315.979 110.939 315.982ZM110.87 315.966C110.854 315.964 110.836 315.96 110.816 315.956C110.836 315.96 110.854 315.964 110.87 315.966ZM110.808 315.952C110.727 315.933 110.648 315.914 110.566 315.894C110.648 315.914 110.727 315.933 110.808 315.952ZM110.564 315.89C110.544 315.887 110.525 315.883 110.501 315.876C110.525 315.883 110.544 315.887 110.564 315.89ZM110.498 315.876C110.417 315.855 110.338 315.833 110.257 315.809C110.338 315.833 110.417 315.855 110.498 315.876ZM110.249 315.809C106.984 314.932 103.699 313.292 100.56 311.161C103.699 313.288 106.984 314.932 110.249 315.809ZM88.9272 300.437C86.0103 296.926 83.6076 293.27 81.9978 289.938C83.6076 293.27 86.0103 296.926 88.9272 300.433V300.437Z" fill="#D5DEE2"/>
<path d="M100.56 311.16C96.2789 308.256 92.2664 304.443 88.9276 300.437V300.433C92.2664 304.443 96.2789 308.256 100.56 311.16Z" fill="#D5DEE2"/>
<path d="M100.56 311.16C96.2789 308.256 92.2664 304.443 88.9276 300.437V300.433C92.2664 304.443 96.2789 308.256 100.56 311.16Z" fill="#043340"/>
<path d="M115.339 316.519C115.316 316.519 115.293 316.519 115.269 316.519C115.262 316.519 115.255 316.519 115.247 316.519C115.231 316.519 115.217 316.519 115.201 316.519C115.193 316.519 115.181 316.519 115.173 316.519C115.158 316.519 115.143 316.519 115.124 316.515C115.117 316.515 115.112 316.515 115.104 316.515C115.082 316.515 115.054 316.515 115.032 316.515C115.008 316.515 114.986 316.515 114.963 316.515C114.956 316.515 114.947 316.515 114.94 316.515C114.925 316.515 114.909 316.512 114.889 316.512C114.883 316.512 114.875 316.512 114.867 316.512C114.851 316.512 114.832 316.512 114.818 316.512C114.81 316.512 114.802 316.512 114.794 316.512C114.775 316.507 114.748 316.507 114.729 316.507C114.725 316.507 114.721 316.507 114.721 316.507C114.699 316.507 114.675 316.504 114.657 316.504C114.649 316.504 114.641 316.504 114.633 316.504C114.617 316.504 114.599 316.504 114.584 316.499C114.576 316.499 114.565 316.499 114.557 316.499C114.541 316.499 114.526 316.499 114.511 316.499C114.503 316.496 114.495 316.496 114.488 316.496C114.465 316.496 114.441 316.496 114.422 316.492C114.419 316.492 114.411 316.492 114.407 316.492C114.389 316.492 114.369 316.492 114.346 316.488C114.338 316.488 114.33 316.488 114.323 316.488C114.308 316.488 114.292 316.488 114.277 316.484C114.266 316.484 114.258 316.484 114.25 316.484C114.234 316.484 114.22 316.481 114.204 316.481C114.196 316.481 114.185 316.481 114.177 316.481C114.153 316.476 114.135 316.476 114.112 316.474C114.109 316.474 114.105 316.474 114.101 316.474C114.077 316.474 114.058 316.469 114.039 316.469C114.028 316.469 114.024 316.469 114.012 316.469C113.996 316.466 113.982 316.466 113.966 316.466C113.958 316.461 113.947 316.461 113.939 316.461C113.924 316.461 113.909 316.458 113.894 316.458C113.886 316.458 113.879 316.458 113.871 316.458C113.848 316.454 113.825 316.454 113.805 316.45C113.802 316.45 113.794 316.45 113.786 316.45C113.767 316.446 113.748 316.446 113.729 316.442C113.721 316.442 113.714 316.442 113.702 316.442C113.686 316.438 113.675 316.438 113.659 316.438C113.648 316.435 113.64 316.435 113.629 316.435C113.617 316.435 113.599 316.431 113.583 316.431C113.575 316.431 113.567 316.427 113.561 316.427C113.541 316.427 113.521 316.423 113.498 316.423C113.491 316.42 113.483 316.42 113.472 316.42C113.457 316.415 113.437 316.415 113.419 316.412C113.411 316.412 113.403 316.412 113.391 316.412C113.379 316.408 113.365 316.408 113.349 316.404C113.338 316.404 113.33 316.404 113.319 316.4C113.303 316.4 113.292 316.4 113.276 316.397C113.269 316.397 113.257 316.397 113.249 316.393C113.23 316.393 113.211 316.389 113.192 316.389C113.181 316.385 113.173 316.385 113.162 316.381C113.142 316.381 113.127 316.377 113.112 316.377C113.099 316.377 113.092 316.373 113.081 316.373C113.066 316.369 113.054 316.369 113.039 316.369C113.031 316.365 113.02 316.365 113.008 316.362C112.993 316.362 112.982 316.362 112.966 316.357C112.958 316.357 112.947 316.354 112.939 316.354C112.92 316.351 112.904 316.351 112.89 316.347C112.874 316.347 112.858 316.343 112.844 316.343C112.831 316.339 112.817 316.339 112.801 316.335C112.79 316.335 112.779 316.331 112.771 316.331C112.755 316.327 112.744 316.327 112.732 316.327C112.721 316.324 112.709 316.324 112.694 316.319C112.683 316.319 112.67 316.316 112.66 316.316C112.648 316.311 112.637 316.311 112.625 316.308C112.613 316.308 112.599 316.305 112.587 316.305C112.567 316.301 112.548 316.297 112.529 316.297C112.518 316.293 112.502 316.293 112.491 316.289C112.48 316.289 112.468 316.285 112.456 316.285C112.445 316.281 112.434 316.281 112.422 316.278C112.406 316.278 112.399 316.273 112.383 316.273C112.372 316.27 112.361 316.27 112.349 316.267C112.338 316.267 112.326 316.262 112.315 316.262C112.303 316.259 112.287 316.254 112.277 316.254C112.257 316.251 112.234 316.246 112.215 316.243C112.203 316.243 112.192 316.24 112.181 316.24C112.168 316.235 112.157 316.235 112.142 316.232C112.13 316.228 112.124 316.227 112.112 316.224C112.096 316.224 112.084 316.22 112.073 316.22C112.062 316.216 112.051 316.216 112.038 316.212C112.027 316.212 112.015 316.208 112 316.205C111.992 316.205 111.981 316.2 111.973 316.2C111.946 316.197 111.924 316.194 111.9 316.186C111.888 316.186 111.881 316.182 111.87 316.182C111.854 316.178 111.843 316.178 111.828 316.174C111.82 316.17 111.812 316.17 111.801 316.17C111.785 316.167 111.774 316.162 111.759 316.159C111.751 316.159 111.739 316.154 111.731 316.154C111.717 316.151 111.706 316.151 111.69 316.148C111.682 316.148 111.678 316.143 111.671 316.143C111.64 316.136 111.609 316.132 111.579 316.124C111.575 316.124 111.568 316.121 111.56 316.121C111.544 316.116 111.529 316.113 111.513 316.113C111.505 316.109 111.497 316.109 111.491 316.105C111.475 316.105 111.459 316.101 111.445 316.097C111.437 316.093 111.429 316.093 111.421 316.093C111.406 316.09 111.391 316.085 111.375 316.083C111.372 316.083 111.372 316.083 111.368 316.083C111.332 316.075 111.299 316.067 111.264 316.059C111.256 316.055 111.253 316.055 111.249 316.055C111.233 316.051 111.215 316.047 111.199 316.044C111.195 316.044 111.188 316.04 111.18 316.04C111.164 316.037 111.15 316.032 111.13 316.029C111.126 316.029 111.122 316.024 111.114 316.024C111.058 316.013 111 315.998 110.943 315.986C110.939 315.982 110.939 315.982 110.939 315.982C110.919 315.979 110.903 315.974 110.885 315.971C110.881 315.971 110.878 315.966 110.87 315.966C110.854 315.964 110.835 315.96 110.816 315.956C110.812 315.956 110.812 315.952 110.808 315.952C110.727 315.933 110.647 315.914 110.566 315.894L110.563 315.89C110.544 315.887 110.525 315.882 110.501 315.876C110.501 315.876 110.501 315.876 110.498 315.876C110.417 315.855 110.337 315.833 110.256 315.809C110.253 315.809 110.253 315.809 110.248 315.809C106.984 314.932 103.699 313.288 100.56 311.16C96.2783 308.256 92.2659 304.443 88.927 300.433C86.01 296.926 83.6074 293.27 82.0004 289.939C88.9155 297.563 98.13 303.99 106.646 303.99C117.423 303.99 131.896 289.168 137.729 277.897L144.549 277.926C147.679 277.926 149.017 279.565 149.021 282.166C149.021 285.654 146.618 290.871 142.9 296.194C139.865 300.541 135.955 304.956 131.761 308.554C126.331 313.219 120.425 316.519 115.339 316.519Z" fill="#87A6C3"/>
<path d="M147.661 288.634H81.3697C78.8322 288.634 76.7775 286.576 76.7775 284.039V279.183C76.7775 276.645 78.8322 274.588 81.3697 274.588H147.661C150.199 274.588 152.257 276.645 152.257 279.183V284.039C152.257 286.576 150.199 288.634 147.661 288.634Z" fill="#043340"/>
<path d="M83.3503 265.136H139.148C149.037 254.656 160.481 241.524 162.29 228.38C163.183 221.62 163.969 212.328 161.684 206.7C157.047 195.264 141.774 188.617 135.848 187.914C120.39 186.08 104.776 185.627 89.2037 186.568C87.3061 186.683 85.6037 187.541 83.8489 188.264C74.6201 192.061 64.8921 199.909 61.5884 207.677C59.0359 213.687 60.8602 223.717 61.7455 230.418C63.5541 243.563 73.4615 254.656 83.3503 265.136Z" fill="#A2BFDC"/>
<path d="M131.923 192.983C131.923 196.789 122.988 199.875 111.97 199.875C100.951 199.875 92.0162 196.789 92.0162 192.983C92.0162 189.176 100.951 186.091 111.97 186.091C122.988 186.091 131.923 189.176 131.923 192.983Z" fill="#032630"/>
<path d="M111.97 186.091C111.456 186.091 110.947 186.098 110.445 186.112C120.751 186.38 128.872 189.354 128.872 192.983C128.872 196.612 120.751 199.585 110.445 199.854C110.947 199.868 111.456 199.875 111.97 199.875C122.988 199.875 131.923 196.789 131.923 192.983C131.923 189.176 122.988 186.091 111.97 186.091Z" fill="#A3B6BF"/>
<path d="M122.518 265.136C124.963 239.14 129.314 211.933 146.058 191.481C144.514 190.689 143.004 190.022 141.597 189.485C134.825 198.043 130.049 207.669 126.599 217.863C116.822 217.008 107.069 217.817 97.3168 218.765C94.4199 207.982 90.2811 197.666 83.5346 188.396C82.1091 188.996 80.6678 189.693 79.2452 190.47C95.3511 211.719 96.4315 239.73 101.166 265.136H105.961C103.301 251.376 101.713 237.074 98.479 223.378C107.355 222.528 116.24 221.843 125.139 222.474C121.065 236.223 119.145 250.836 117.796 265.136H122.518Z" fill="#4890C0"/>
<path d="M161.658 206.628C161.654 206.622 161.65 206.617 161.65 206.611C161.65 206.617 161.654 206.622 161.658 206.628ZM161.627 206.555C161.622 206.549 161.62 206.543 161.62 206.537C161.62 206.543 161.622 206.548 161.627 206.555ZM161.597 206.482C161.592 206.476 161.589 206.469 161.589 206.464C161.589 206.469 161.592 206.476 161.597 206.482ZM161.565 206.41C161.562 206.403 161.559 206.398 161.559 206.391C161.559 206.398 161.562 206.403 161.565 206.41ZM161.531 206.333C161.531 206.33 161.527 206.325 161.527 206.32C161.527 206.325 161.531 206.33 161.531 206.333ZM161.501 206.256C161.497 206.254 161.497 206.251 161.497 206.249C161.497 206.251 161.497 206.254 161.501 206.256Z" fill="#D5DEE2"/>
<path d="M139.148 265.136H122.518C123.135 258.58 123.87 251.951 124.897 245.37C137.687 238.548 146.441 226.417 148.12 214.212C148.967 207.789 149.899 198.081 147.37 192.181C152.999 195.304 158.803 200.056 161.497 206.249C161.497 206.251 161.497 206.254 161.5 206.256C161.508 206.277 161.515 206.299 161.527 206.32C161.527 206.325 161.531 206.33 161.531 206.333C161.543 206.354 161.551 206.372 161.558 206.391C161.558 206.398 161.562 206.403 161.565 206.41C161.573 206.428 161.581 206.446 161.589 206.464C161.589 206.469 161.592 206.476 161.596 206.482C161.604 206.501 161.612 206.519 161.619 206.537C161.619 206.543 161.622 206.549 161.627 206.555C161.634 206.573 161.642 206.593 161.65 206.611C161.65 206.616 161.654 206.622 161.657 206.628C161.665 206.652 161.676 206.676 161.684 206.7C162.792 209.425 163.175 213.012 163.18 216.753C163.183 220.736 162.75 224.895 162.289 228.38C160.481 241.524 149.037 254.656 139.148 265.136ZM117.796 265.136H105.961C105.055 260.456 104.273 255.715 103.51 250.955C109.333 250.83 114.813 249.663 119.815 247.708C118.98 253.516 118.34 259.352 117.796 265.136ZM101.165 265.136H83.35C79.0419 260.569 74.731 255.885 71.0851 250.967H98.8152C99.5555 255.739 100.299 260.48 101.165 265.136Z" fill="#87A6C3"/>
<path d="M122.518 265.136H117.796C118.34 259.352 118.981 253.517 119.815 247.708C121.571 247.023 123.269 246.239 124.898 245.37C123.87 251.951 123.135 258.58 122.518 265.136ZM105.961 265.136H101.166C100.3 260.48 99.556 255.739 98.8156 250.967H102.462C102.813 250.967 103.162 250.962 103.51 250.955C104.274 255.715 105.056 260.456 105.961 265.136Z" fill="#3C7DAA"/>
<path d="M122.472 170.024C122.003 192.775 123.568 194.844 120.919 199.143C118.225 199.614 115.185 199.875 111.973 199.875C108.75 199.875 105.711 199.614 103.015 199.143C102.035 197.543 101.467 195.669 101.467 193.653V170.024H122.472Z" fill="#043340"/>
<path d="M122.472 187.122V187.926C135.407 192.063 127.462 199.409 110.445 199.854C110.947 199.868 111.456 199.875 111.97 199.875C131.777 199.875 139.657 190.802 122.472 187.122Z" fill="#5B8295"/>
<path d="M159.519 205.071C155.767 204.441 151.248 212.74 149.423 223.608C147.599 234.476 149.163 243.796 152.915 244.426C156.672 245.056 161.19 236.757 163.015 225.889C164.84 215.022 163.276 205.702 159.519 205.071Z" fill="#032630"/>
<path d="M163.015 225.889C162.931 226.396 162.839 226.897 162.743 227.39C164.183 217.183 162.594 208.681 159.018 208.081C155.437 207.48 151.16 214.997 149.19 225.116C149.26 224.618 149.336 224.114 149.423 223.608C151.248 212.74 155.767 204.441 159.519 205.071C163.276 205.702 164.84 215.022 163.015 225.889Z" fill="#5B8295"/>
<path d="M64.5401 207.089C68.2922 206.457 72.8147 214.757 74.6384 225.625C76.4642 236.492 74.896 245.812 71.1432 246.443C67.3911 247.073 62.8693 238.774 61.0449 227.906C59.2191 217.039 60.7874 207.718 64.5401 207.089Z" fill="#032630"/>
<path d="M61.0449 227.906C61.1288 228.412 61.22 228.914 61.3168 229.408C59.8755 219.199 61.466 210.698 65.0452 210.098C68.6215 209.497 72.8994 217.013 74.873 227.133C74.8005 226.634 74.7223 226.131 74.6384 225.625C72.8147 214.757 68.2922 206.457 64.5401 207.089C60.7874 207.718 59.2191 217.039 61.0449 227.906Z" fill="#5B8295"/>
<path d="M182.922 240.13C163.563 240.13 152.317 224.229 151.785 223.458C149.773 220.549 150.501 216.563 153.411 214.551C156.311 212.548 160.286 213.266 162.301 216.154C162.754 216.794 172.654 230.409 188.637 226.637C194.378 225.281 200.767 216.367 206.168 202.176C207.421 198.873 211.116 197.212 214.427 198.47C217.731 199.727 219.392 203.425 218.135 206.729C210.894 225.758 201.959 236.648 191.578 239.099C188.537 239.814 185.647 240.13 182.922 240.13Z" fill="#043340"/>
<path d="M224.193 186.661C224.193 186.661 218.311 226.095 210.354 233.547C202.393 240.997 184.356 227.26 185.567 221.949C186.564 217.588 214.37 181.085 214.37 181.085L224.193 186.661Z" fill="#A2BFDC"/>
<path d="M208.031 206.017L218.651 183.515L217.279 182.735L193.937 232.179C194.386 232.455 194.838 232.725 195.302 232.979L207.352 207.452C211.686 210.086 215.979 210.743 219.175 210.743C219.264 210.743 219.356 210.742 219.443 210.742C219.574 210.205 219.705 209.668 219.832 209.132C216.769 209.217 212.384 208.705 208.031 206.017Z" fill="#4890C0"/>
<path d="M205.596 163.03C204.324 163.179 203.78 164.761 204.611 165.74C205.884 167.242 207.774 169.709 208.586 171.953C209.866 175.485 211.089 183.321 214.872 185.091C218.651 186.861 222.894 187.799 226.497 184.875C230.1 181.951 231.599 175.319 233.449 174.649C235.301 173.979 241.64 166.4 240.011 164.658C238.888 163.457 232.139 172.079 230.647 171.382C229.156 170.684 236.217 160.229 235.545 158.377C234.876 156.528 233.116 156.262 232.123 158.382C231.13 160.501 227.056 168.163 226.198 167.762C225.335 167.358 229.337 155.678 229.321 154.068C229.31 152.454 226.972 151.779 226.381 153.04C225.791 154.3 222.315 165.456 221.392 165.792C220.464 166.127 221.016 153.996 221.077 152.583C221.135 151.192 218.662 150.126 217.478 151.318C216.294 152.508 217.796 166.903 216.297 168.018C214.8 169.132 213.374 169.933 212.308 168.036C211.464 166.541 208.472 162.692 205.596 163.03Z" fill="#043340"/>
<path d="M38.9673 301.039C33.1714 265.114 50.3311 230.81 60.1847 220.359C62.611 217.787 66.6622 217.665 69.2341 220.089C71.8025 222.506 71.9295 226.542 69.5261 229.116C69.3339 229.328 58.0734 241.833 52.332 268.008C50.1431 277.987 49.9021 288.414 51.6074 299C52.1713 302.491 49.7988 305.776 46.3071 306.339C42.8148 306.903 39.5305 304.527 38.9673 301.039Z" fill="#043340"/>
<path d="M39.8593 309.843C39.8593 309.843 26.7221 272.199 30.3012 261.902C33.8775 251.604 56.2335 255.372 57.6324 260.635C58.7831 264.958 51.1513 310.206 51.1513 310.206L39.8593 309.843Z" fill="#A2BFDC"/>
<path d="M45.1642 285.188L46.2303 310.05L47.8086 310.099L45.4677 255.475C44.9418 255.437 44.4138 255.412 43.8844 255.401L45.0954 283.604C40.0326 283.289 35.9276 284.705 33.0981 286.191C33.0185 286.234 32.9424 286.276 32.8614 286.319C32.9948 286.855 33.1297 287.39 33.2667 287.924C35.9383 286.421 40.0591 284.835 45.1642 285.188Z" fill="#4890C0"/>
<path d="M37.8394 310.962C37.8394 310.962 40.6804 305.174 48.5446 306.952C56.4132 308.731 54.0178 316.611 56.2762 320.183C58.5288 323.751 60.925 328.735 59.3187 329.75C57.7088 330.764 51.7529 325.285 50.5103 323.318C49.2728 321.356 45.525 331.838 44.8349 334.897C44.1404 337.956 49.2771 347.077 47.3114 348.319C45.3486 349.558 37.1385 336.756 36.0689 335.058C35.0006 333.364 37.1844 313.875 37.8394 310.962Z" fill="#043340"/>
<path d="M218.954 108.329C218.954 135.482 169.941 157.496 109.478 157.496C49.0171 157.496 7.62939e-06 135.482 7.62939e-06 108.329C7.62939e-06 81.1752 49.0171 59.1629 109.478 59.1629C169.941 59.1629 218.954 81.1752 218.954 108.329Z" fill="#043340"/>
<path d="M12.7811 131.403C14.721 133.041 16.8639 134.624 19.1933 136.145C13.5215 119.831 11.0644 101.717 11.6591 86.2272C9.86771 87.822 8.26718 89.4656 6.86752 91.1529C6.91702 103.921 8.85259 118.024 12.7811 131.403Z" fill="#A2BFDC"/>
<path d="M212.059 91.1157C210.649 89.4247 209.042 87.7783 207.245 86.1813C208.161 101.817 205.029 120.242 198.778 136.777C201.201 135.246 203.435 133.648 205.463 131.993C209.844 118.358 212.124 104.015 212.059 91.1157Z" fill="#A2BFDC"/>
<path d="M139.233 177.973C118.957 175.159 98.383 174.728 77.9389 176.714C30.9184 181.282 14.1884 110.857 20.8919 75.4108C24.3104 57.337 44.4524 44.3842 61.4622 40.3617C92.285 33.0721 125.216 32.6122 156.197 39.1148C172.822 42.656 189.265 53.9344 195.738 70.1435C209.261 104.005 185.165 184.345 139.233 177.973Z" fill="#A2BFDC"/>
<path d="M144.365 178.332C163.762 178.323 178.852 162.626 188.295 142.451L188.299 142.45C178.852 162.623 163.765 178.327 144.365 178.332ZM139.233 177.973C139.075 177.951 138.914 177.929 138.757 177.907C138.914 177.929 139.075 177.951 139.233 177.973ZM138.608 177.887C138.454 177.866 138.301 177.845 138.147 177.825C138.301 177.845 138.454 177.866 138.608 177.887ZM74.6581 176.914C75.6503 176.889 76.6625 176.832 77.6784 176.738C76.6589 176.832 75.6503 176.891 74.6581 176.914ZM78.4331 176.667C78.5027 176.66 78.5716 176.653 78.6361 176.647C78.5716 176.653 78.5027 176.66 78.4331 176.667ZM78.7889 176.633C86.3411 175.924 93.9062 175.545 101.468 175.494C93.9062 175.545 86.3411 175.924 78.7889 176.633Z" fill="#D5DEE2"/>
<path d="M101.467 175.494C102.054 175.49 102.644 175.487 103.235 175.487C102.644 175.487 102.054 175.49 101.467 175.494ZM103.257 175.487C103.254 175.487 103.249 175.487 103.241 175.487C103.249 175.487 103.254 175.487 103.257 175.487Z" fill="#D5DEE2"/>
<path d="M101.467 175.494C102.054 175.49 102.644 175.487 103.235 175.487C102.644 175.487 102.054 175.49 101.467 175.494ZM103.257 175.487C103.254 175.487 103.249 175.487 103.241 175.487C103.249 175.487 103.254 175.487 103.257 175.487Z" fill="#043340"/>
<path d="M198.368 79.6242C197.793 76.3973 196.988 73.3899 195.946 70.6716C196.988 73.3899 197.793 76.3973 198.368 79.6242ZM195.946 70.668C195.925 70.6164 195.907 70.5647 195.884 70.5116C195.907 70.5647 195.925 70.6164 195.946 70.668ZM195.841 70.4019C195.835 70.3825 195.827 70.3638 195.819 70.3452C195.827 70.3638 195.835 70.3825 195.841 70.4019ZM195.765 70.2031C195.757 70.1823 195.75 70.1637 195.738 70.1436C195.75 70.1637 195.757 70.1823 195.765 70.2031ZM195.669 69.9657C195.669 69.9621 195.666 69.9578 195.666 69.9549C195.666 69.9578 195.669 69.9621 195.669 69.9657ZM195.635 69.8839C195.631 69.876 195.631 69.8681 195.627 69.8609C195.631 69.8681 195.631 69.876 195.635 69.8839ZM195.593 69.7791C195.593 69.7748 195.589 69.7727 195.589 69.7677C195.589 69.7713 195.593 69.7763 195.593 69.7791ZM195.555 69.6852C195.555 69.6816 195.55 69.6773 195.55 69.6737C195.55 69.6773 195.555 69.6816 195.555 69.6852ZM195.516 69.5969C195.516 69.5919 195.512 69.5862 195.512 69.5804C195.512 69.5862 195.516 69.5919 195.516 69.5969ZM195.482 69.5073C195.478 69.5008 195.474 69.4929 195.47 69.4857C195.474 69.4929 195.478 69.5008 195.482 69.5073ZM195.439 69.4118C195.436 69.4054 195.436 69.4004 195.432 69.3939C195.436 69.3996 195.439 69.4054 195.439 69.4118ZM195.401 69.3186C195.397 69.3128 195.397 69.3064 195.393 69.3006C195.397 69.3064 195.397 69.3128 195.401 69.3186ZM195.359 69.2246C195.359 69.2174 195.355 69.2138 195.355 69.2074C195.355 69.2131 195.359 69.2188 195.359 69.2246ZM195.32 69.1263C195.317 69.1234 195.317 69.1198 195.313 69.1155C195.317 69.1184 195.317 69.1234 195.32 69.1263ZM195.279 69.0345C195.279 69.0302 195.275 69.0266 195.275 69.0223C195.275 69.0266 195.279 69.0302 195.279 69.0345ZM195.236 68.9412C195.236 68.9369 195.236 68.9333 195.232 68.9297C195.236 68.9333 195.236 68.9369 195.236 68.9412ZM195.194 68.8444C195.194 68.8422 195.194 68.8401 195.194 68.8379C195.194 68.8415 195.194 68.8415 195.194 68.8444ZM195.113 68.6571C195.113 68.6557 195.113 68.655 195.113 68.6535C195.113 68.655 195.113 68.6557 195.113 68.6571ZM195.072 68.5638C195.072 68.5624 195.072 68.5624 195.072 68.5624C195.072 68.5624 195.072 68.5624 195.072 68.5638ZM195.029 68.4713V68.4706V68.4713Z" fill="#D5DEE2"/>
<path d="M188.295 142.451C197.762 122.236 201.568 97.5272 198.368 79.6242C201.568 97.5293 197.769 122.234 188.298 142.45L188.295 142.451Z" fill="#D5DEE2"/>
<path d="M188.295 142.451C197.762 122.236 201.568 97.5272 198.368 79.6242C201.568 97.5293 197.769 122.234 188.298 142.45L188.295 142.451Z" fill="#043340"/>
<path d="M144.353 178.332C142.678 178.332 140.973 178.214 139.233 177.973C139.075 177.951 138.914 177.929 138.757 177.907C138.707 177.9 138.658 177.895 138.608 177.887C138.454 177.866 138.301 177.846 138.147 177.825C126.584 176.27 114.929 175.488 103.258 175.487C103.254 175.487 103.25 175.487 103.242 175.487C103.238 175.487 103.235 175.487 103.235 175.487C102.644 175.487 102.055 175.49 101.468 175.494C93.9062 175.546 86.3411 175.924 78.7889 176.633C78.7394 176.637 78.6907 176.642 78.6361 176.647C78.5716 176.653 78.5027 176.66 78.4331 176.667C78.2681 176.683 78.1038 176.698 77.9388 176.714C77.8498 176.723 77.7659 176.731 77.6784 176.739C76.6625 176.832 75.6503 176.889 74.6581 176.914C74.3137 176.922 73.9715 176.927 73.63 176.927C59.2661 176.927 47.9475 169.678 39.4541 158.727C46.2608 163.842 54.2822 166.881 63.5849 166.881C64.991 166.881 66.4294 166.812 67.8929 166.669C76.3175 165.85 84.7614 165.442 93.1974 165.442C105.239 165.442 117.264 166.274 129.187 167.929C130.93 168.171 132.632 168.287 134.307 168.287C176.881 168.278 198.705 92.6775 185.697 60.0977C184.26 56.4978 182.328 53.1424 180.017 50.0605C186.421 54.9546 191.741 61.1817 195.03 68.4706V68.4713C195.045 68.5022 195.056 68.5323 195.072 68.5625C195.072 68.5625 195.072 68.5625 195.072 68.5639C195.083 68.594 195.099 68.6234 195.113 68.6536C195.113 68.655 195.113 68.6557 195.113 68.6572C195.141 68.7167 195.167 68.7784 195.194 68.8379C195.194 68.8401 195.194 68.8423 195.194 68.8444C195.21 68.8724 195.222 68.9018 195.233 68.9298C195.236 68.9334 195.236 68.9369 195.236 68.9413C195.252 68.9685 195.264 68.9951 195.276 69.0223C195.276 69.0266 195.279 69.0302 195.279 69.0345C195.29 69.0618 195.302 69.0883 195.314 69.1156C195.317 69.1199 195.317 69.1235 195.32 69.1264C195.333 69.1536 195.344 69.1801 195.355 69.2074C195.355 69.2139 195.359 69.2175 195.359 69.2246C195.371 69.2505 195.382 69.2734 195.393 69.3007C195.398 69.3064 195.398 69.3129 195.401 69.3186C195.413 69.3444 195.42 69.3681 195.433 69.3939C195.436 69.4004 195.436 69.4054 195.439 69.4119C195.451 69.437 195.463 69.4628 195.471 69.4858C195.474 69.4929 195.478 69.5008 195.482 69.5073C195.49 69.5324 195.502 69.5561 195.512 69.5805C195.512 69.5862 195.517 69.592 195.517 69.597C195.528 69.6228 195.54 69.6479 195.55 69.6737C195.55 69.6773 195.555 69.6816 195.555 69.6852C195.566 69.7132 195.578 69.7397 195.589 69.7677C195.589 69.7727 195.593 69.7749 195.593 69.7792C195.605 69.8072 195.616 69.833 195.627 69.861C195.631 69.8682 195.631 69.876 195.635 69.8839C195.647 69.9076 195.654 69.9313 195.667 69.955C195.667 69.9578 195.669 69.9621 195.669 69.9657C195.693 70.0245 195.716 70.0841 195.738 70.1436C195.75 70.1637 195.758 70.1824 195.766 70.2032C195.784 70.2498 195.8 70.2972 195.819 70.3452C195.827 70.3639 195.835 70.3825 195.842 70.4019C195.857 70.4363 195.873 70.4758 195.884 70.5117C195.908 70.5648 195.926 70.6164 195.946 70.6681C195.946 70.6702 195.946 70.6702 195.946 70.6717C196.989 73.3899 197.793 76.3973 198.368 79.6242C201.569 97.5272 197.763 122.236 188.295 142.451C178.852 162.626 163.762 178.323 144.365 178.332C144.36 178.332 144.357 178.332 144.353 178.332Z" fill="#87A6C3"/>
<path d="M154.399 144.939C146.564 147.983 138.179 149.85 130.452 150.908C105.853 154.278 76.3178 152.515 54.7625 139.159C45.0811 133.16 37.5648 124.202 35.744 112.71C35.5991 111.786 35.4491 110.861 35.3035 109.937C31.8276 87.977 47.8711 67.8214 70.0405 66.0989C96.7733 64.0205 123.626 64.0205 150.36 66.0989C172.528 67.8214 188.572 87.977 185.095 109.937C184.957 110.807 184.82 111.679 184.682 112.551C182.04 129.222 169.209 139.184 154.399 144.939Z" fill="#043340"/>
<path d="M130.938 128.941C130.938 133.182 122.122 140.562 111.249 140.562C100.376 140.562 91.56 133.182 91.56 128.941C91.56 124.702 100.376 125.203 111.249 125.203C122.122 125.203 130.938 124.702 130.938 128.941Z" fill="#2FC670"/>
<path d="M82.8942 102.133C82.8942 105.63 80.0625 108.465 76.563 108.465C73.0678 108.465 70.2312 105.63 70.2312 102.133C70.2312 98.6363 73.0678 95.8004 76.563 95.8004C80.0625 95.8004 82.8942 98.6363 82.8942 102.133Z" fill="#2FC670"/>
<path d="M148.662 100.106C148.662 103.604 145.825 106.438 142.328 106.438C138.829 106.438 135.997 103.604 135.997 100.106C135.997 96.6096 138.829 93.7737 142.328 93.7737C145.825 93.7737 148.662 96.6096 148.662 100.106Z" fill="#2FC670"/>
<path d="M107.317 40.1673L109.518 40.2111L109.716 30.0497L119.773 26.9225L105.654 22.6072L109.904 20.3646L110.115 9.56257L107.914 9.52023L107.727 19.0231L99.9007 23.1517L112.299 26.9404L107.547 28.419L107.317 40.1673Z" fill="black"/>
<path d="M104.339 4.67776C104.286 7.31281 106.382 9.49015 109.016 9.5418C111.648 9.59346 113.828 7.49934 113.879 4.86429C113.933 2.22996 111.837 0.051902 109.203 0.0009659C106.566 -0.0506876 104.389 2.04343 104.339 4.67776Z" fill="black"/>
<path d="M97.3895 43.1984C97.3278 46.3521 102.69 49.0159 109.367 49.145C116.04 49.2756 121.502 46.8249 121.563 43.6704C121.624 40.5167 116.262 37.8544 109.589 37.7238C102.912 37.594 97.4512 40.0439 97.3895 43.1984Z" fill="#1E191B"/>
</svg>
