<svg width="192" height="127" viewBox="0 0 192 127" fill="none" xmlns="http://www.w3.org/2000/svg">
<path d="M192 64.6994C192 88.5122 149.019 107.815 96 107.815C42.9805 107.815 0 88.5122 0 64.6994C0 40.8872 42.9805 21.5848 96 21.5848C149.019 21.5848 192 40.8872 192 64.6994Z" fill="#043340"/>
<path d="M11.2066 84.9333C12.9093 86.3706 14.7883 87.7577 16.8292 89.0931C11.856 74.7864 9.70213 58.9024 10.2226 45.3195C8.65399 46.7175 7.25015 48.1578 6.02051 49.6375C6.0657 60.8369 7.76402 73.201 11.2066 84.9333Z" fill="#A2BFDC"/>
<path d="M185.952 49.6071C184.718 48.1231 183.307 46.6777 181.731 45.2811C182.535 58.9879 179.788 75.1481 174.307 89.6458C176.434 88.3024 178.391 86.9008 180.169 85.4517C184.009 73.4935 186.01 60.9195 185.952 49.6071Z" fill="#A2BFDC"/>
<path d="M122.092 125.771C104.311 123.302 86.2714 122.925 68.3436 124.665C27.1117 128.673 12.4406 66.9167 18.3184 35.8331C21.317 19.9849 38.9802 8.62508 53.8941 5.10163C80.9242 -1.2922 109.801 -1.69746 136.969 4.00683C151.547 7.11045 165.967 17.0008 171.644 31.2149C183.5 60.9077 162.368 131.359 122.092 125.771Z" fill="#A2BFDC"/>
<path d="M126.582 126.083H126.581H126.582ZM126.595 126.083C143.602 126.075 156.835 112.309 165.118 94.6233L165.12 94.6189C156.835 112.309 143.603 126.079 126.595 126.083ZM122.238 125.791C122.231 125.791 122.222 125.787 122.215 125.787C122.222 125.787 122.231 125.791 122.238 125.791ZM122.092 125.771C121.931 125.748 121.769 125.724 121.607 125.705C121.769 125.724 121.931 125.748 122.092 125.771ZM121.589 125.702C121.451 125.682 121.312 125.663 121.173 125.647C121.312 125.663 121.451 125.682 121.589 125.702ZM65.3779 124.845C66.3495 124.822 67.3423 124.762 68.3438 124.665C75.7296 123.95 83.133 123.592 90.5319 123.592C83.1352 123.592 75.7289 123.95 68.3438 124.665C67.3401 124.762 66.3517 124.822 65.3779 124.845ZM173.949 39.5294H173.948C173.424 36.592 172.685 33.871 171.725 31.4169C172.685 33.871 173.424 36.592 173.949 39.5294ZM171.7 31.3556C171.681 31.309 171.663 31.2623 171.644 31.215C171.663 31.2623 171.681 31.309 171.7 31.3556ZM171.644 31.215C170.646 28.7156 169.379 26.3518 167.887 24.136C169.379 26.3518 170.646 28.7156 171.644 31.215ZM167.879 24.125C167.865 24.101 167.851 24.0813 167.837 24.0616C167.851 24.0813 167.865 24.101 167.879 24.125ZM167.826 24.0456C167.814 24.0266 167.801 24.0069 167.789 23.988C167.801 24.0069 167.814 24.0266 167.826 24.0456ZM167.762 23.9523C167.754 23.9362 167.748 23.9297 167.738 23.918C167.746 23.9297 167.754 23.9406 167.762 23.9523ZM167.708 23.8714C167.702 23.8634 167.696 23.8509 167.689 23.8437C167.695 23.8509 167.702 23.8634 167.708 23.8714ZM167.657 23.797C167.651 23.789 167.645 23.7773 167.639 23.7693C167.645 23.7773 167.651 23.789 167.657 23.797ZM167.6 23.7146C167.597 23.7066 167.593 23.7037 167.59 23.7001C167.593 23.7037 167.597 23.7066 167.6 23.7146ZM167.547 23.6374C167.544 23.633 167.542 23.6294 167.54 23.6257C167.542 23.6294 167.544 23.633 167.547 23.6374ZM167.494 23.5594C167.493 23.5594 167.492 23.555 167.49 23.555C167.492 23.555 167.493 23.5594 167.494 23.5594ZM167.444 23.4887C167.442 23.4858 167.441 23.4858 167.439 23.4807C167.441 23.4858 167.442 23.4858 167.444 23.4887ZM167.391 23.4144C167.391 23.4114 167.389 23.4114 167.389 23.4114C167.391 23.4114 167.391 23.4114 167.391 23.4144ZM167.339 23.3415C167.338 23.3415 167.339 23.3415 167.338 23.3371C167.338 23.3415 167.339 23.3415 167.339 23.3415Z" fill="#D5DEE2"/>
<path d="M165.118 94.6233C173.417 76.8967 176.754 55.2261 173.947 39.5294H173.949C176.755 55.2297 173.423 76.8923 165.12 94.619L165.118 94.6233Z" fill="#D5DEE2"/>
<path d="M165.118 94.6233C173.417 76.8967 176.754 55.2261 173.947 39.5294H173.949C176.755 55.2297 173.423 76.8923 165.12 94.619L165.118 94.6233Z" fill="#043340"/>
<path d="M126.582 126.083H126.581C125.16 126.083 123.712 125.99 122.238 125.791C122.231 125.791 122.222 125.787 122.215 125.787C122.173 125.783 122.134 125.776 122.092 125.771C121.931 125.748 121.769 125.724 121.607 125.705C121.601 125.702 121.596 125.702 121.588 125.702C121.451 125.682 121.311 125.663 121.173 125.647C111.018 124.276 100.782 123.591 90.5319 123.591C83.1329 123.591 75.7296 123.949 68.3437 124.665C67.3422 124.762 66.3495 124.822 65.3779 124.844C65.1067 124.848 64.8363 124.852 64.5659 124.852C51.9699 124.852 42.0439 118.497 34.5953 108.894C40.5635 113.38 47.5995 116.044 55.755 116.044C56.9891 116.044 58.25 115.981 59.5351 115.857C66.9202 115.14 74.3235 114.781 81.7203 114.781C92.2805 114.781 102.827 115.511 113.285 116.963C114.811 117.173 116.304 117.278 117.774 117.278C155.107 117.27 174.242 50.9743 162.835 22.4069C161.575 19.2486 159.883 16.3083 157.855 13.6063C161.488 16.3826 164.725 19.6459 167.338 23.337C167.339 23.3413 167.338 23.3413 167.339 23.3413C167.356 23.3647 167.372 23.388 167.389 23.4113C167.389 23.4113 167.39 23.4113 167.391 23.4142C167.407 23.4354 167.423 23.4579 167.439 23.4805C167.441 23.4856 167.442 23.4857 167.444 23.4886C167.459 23.5082 167.475 23.5323 167.49 23.5549C167.492 23.5549 167.493 23.5592 167.494 23.5592C167.51 23.5826 167.525 23.6066 167.54 23.6256C167.542 23.6292 167.544 23.6329 167.546 23.6373C167.562 23.6562 167.575 23.6759 167.59 23.6999C167.593 23.7036 167.597 23.7065 167.6 23.7145C167.614 23.7342 167.627 23.7502 167.639 23.7692C167.645 23.7772 167.651 23.7889 167.657 23.7969C167.667 23.8115 167.679 23.8275 167.689 23.8435C167.696 23.8508 167.702 23.8632 167.708 23.8712C167.718 23.8858 167.728 23.9018 167.738 23.9179C167.748 23.9295 167.754 23.9361 167.762 23.9521C167.772 23.9638 167.78 23.9762 167.788 23.9878C167.801 24.0068 167.814 24.0265 167.826 24.0454C167.83 24.0505 167.834 24.0534 167.837 24.0615C167.851 24.0811 167.865 24.1008 167.879 24.1249C167.881 24.1278 167.885 24.1314 167.887 24.1358C169.379 26.3516 170.646 28.7154 171.644 31.2148C171.663 31.2622 171.681 31.3088 171.7 31.3555C171.708 31.3781 171.716 31.3978 171.724 31.4167C172.685 33.8709 173.424 36.5918 173.948 39.5293C176.755 55.2259 173.417 76.8966 165.118 94.6232C156.835 112.309 143.602 126.075 126.594 126.083C126.589 126.083 126.587 126.083 126.582 126.083Z" fill="#87A6C3"/>
<path d="M135.392 96.8034C128.522 99.4741 121.167 101.11 114.392 102.037C92.8229 104.993 66.924 103.447 48.0209 91.7333C39.5323 86.4758 32.9394 78.6183 31.3439 68.5443C31.2142 67.7302 31.0866 66.9197 30.9576 66.1106C27.9079 46.854 41.9784 29.1792 61.415 27.6674C84.8576 25.8445 108.407 25.8445 131.849 27.6674C151.287 29.1792 165.358 46.854 162.307 66.1106C162.186 66.873 162.065 67.6369 161.944 68.4037C159.63 83.0216 148.378 91.7573 135.392 96.8034Z" fill="#043340"/>
<path d="M114.82 82.7766C114.82 86.4918 107.09 92.968 97.5542 92.968C88.0181 92.968 80.2875 86.4918 80.2875 82.7766C80.2875 79.0578 88.0181 79.4981 97.5542 79.4981C107.09 79.4981 114.82 79.0578 114.82 82.7766Z" fill="#2FC670"/>
<path d="M72.69 59.2676C72.69 62.3326 70.2038 64.8174 67.1373 64.8174C64.0716 64.8174 61.5839 62.3326 61.5839 59.2676C61.5839 56.1997 64.0716 53.715 67.1373 53.715C70.2038 53.715 72.69 56.1997 72.69 59.2676Z" fill="#2FC670"/>
<path d="M130.359 57.4883C130.359 60.5577 127.873 63.041 124.807 63.041C121.74 63.041 119.255 60.5577 119.255 57.4883C119.255 54.4233 121.74 51.94 124.807 51.94C127.873 51.94 130.359 54.4233 130.359 57.4883Z" fill="#2FC670"/>
</svg>
